<svg xmlns="http://www.w3.org/2000/svg" viewBox="0 0 2428.82 629.8"><title>logo</title><path d="M711.9,201.1l-20.3-20.5,13.3-13.3,20.3,20.5Zm-20.3,52.3,20.3-20,13.3,13.3L704.9,267Zm22.7,79,20-23.8V135.7H825V109h19.2v26.7h83v19.2H753.5V315.5l-24.8,29.4Zm45,.4,16.5-19.7V175.5H908.7V324.4h18.7v19.2H889.5V194.7H795V320.4l-20.8,25.1ZM821,211.7l21.4,33.1,21.3-33.1,16.5,10.7L854,263l26.2,40.3L863.7,314l-21.3-33.1-21.4,33-16.3-10.7,25.9-40.3-25.9-40.6Z" transform="translate(-3)"/><path d="M957.9,309.1h29.9v-80H962.2V209.9h25.6V147.7H960V128.5h74.7v19.2H1007v62.2h25.6v19.2H1007v80h29.6v19.2H957.9V309.1Zm236.9-93.6h-36.6V325.4h36v19.2H1139V215.5h-42.4v91.2l-32.3,39.2-14.9-12,28-33.9V215.4h-35V196.2h152.3Zm-8.6-74.5H1053.9V121.8h132.3Z" transform="translate(-3)"/><path d="M1252.1,155.5l-25.6-25.6,13.6-13.6,25.3,25.9Zm0,92.8-25.6-25.6,13.6-13.3,25.3,25.6Zm13.4,66.2-25.3,25.6-13.6-13.3,25.6-25.9ZM1361,171.7h-54.4v30.9h47.8V345.1h-37.9V325.9h18.7v-104h-28.6v97.9l-23.5,26.7-14.4-12.3,18.7-21.4V171.7h-15.2V152.5H1361v4.3l14.1-15.5V113h19.2v22.1h65.1v19.2h-70.1l-18.7,20.5-9.6-8.5Zm-48-58.4,20.3,19.7L1320,146.9l-20.6-19.5Zm57.6,71h83.2v28.8l-22.2,35.7h27.8V268h-33.6v76.6h-42.4V325.4h23.2V268h-39.2V248.8h41.9l25.3-41.1v-4.3h-64Z" transform="translate(-3)"/><path d="M1495.7,340.1l36.6-91.3-36.8-59,16.3-10.1,29.3,47,23.2-58.2v-6.1h-73.1V143.2h92.3v29.1L1553.6,247l44.3,70.7-16.3,10.2-36.8-58.7-31.2,78.2Zm223.6,1.6H1671L1660.1,287l-40.3,48.6-14.9-12.3,50.2-60.6-15.2-76h-46.2V167.4h42.4l-10.7-53.6,18.9-4,11.5,57.6h72.8v19.2h-69.1l11.2,56.8,33.6-40.3,14.7,12.3L1675.5,268l10.9,54.4h32.9Zm-23.2-186.3L1674,133l13.9-13.6,22.1,22.7Z" transform="translate(-3)"/><path d="M161.2,358C149.3,314.5,73.3,131.7,95.7,92.5c39.1-22.4,222.1,53.1,265.6,64.9Z" transform="translate(-3)" style="fill:lime"/><path d="M361,472.3c-43.5,11.9-226.3,87.8-265.5,65.5-22.4-39.1,53.1-222.1,64.9-265.6Z" transform="translate(-3)" style="fill:#00e7ff"/><path d="M274.9,157.5C318.3,145.6,501.2,69.6,540.3,92c22.4,39.1-53.1,222.1-64.9,265.6Z" transform="translate(-3)" style="fill:#ff931e"/><path d="M475.3,271.9c11.9,43.5,87.9,226.3,65.5,265.5-39.1,22.4-222.1-53.1-265.6-64.9Z" transform="translate(-3)" style="fill:#ef2231"/><path d="M176.2,234C198.5,194.9,274.1,11.8,317.6,0c43.5,11.8,119.5,194.6,141.9,233.7Z" transform="translate(-3)" style="fill:#ff0"/><path d="M459.6,395.8c-22.3,39.1-97.9,222.1-141.3,234-43.5-11.8-119.5-194.6-142-233.7Z" transform="translate(-3)" style="fill:#3fa9f5"/><path d="M237,456.6C197.9,434.3,14.9,358.7,3,315.3c11.8-43.5,194.6-119.5,233.7-141.9Z" transform="translate(-3)" style="fill:lime"/><path d="M398.8,173.2c39.1,22.3,222.2,97.9,234,141.4C621,358.1,438.2,434.1,399.1,456.5Z" transform="translate(-3)" style="fill:#ff4800"/><path d="M238.6,456.9c-39.3-22-223-96.1-235.2-139.4C14.8,273.9,197,196.4,235.9,173.7Z" transform="translate(-3)" style="fill:#9cff00"/><path d="M857.3,481.5a4.48,4.48,0,0,1-1.4,3.2,6.41,6.41,0,0,1-4.7,1.8H804.7v-9.9h39.2v-17H804.7V416.3a4.28,4.28,0,0,1,.6-2.2,6.55,6.55,0,0,1,1.5-1.8,9.86,9.86,0,0,1,2-1.3,5.37,5.37,0,0,1,2.1-.5h46.5v71Zm-13.4-60.9H818.1v28.9h25.8Z" transform="translate(-3)"/><path d="M919.7,449.5h7.5v9.9H867.1V415.3a3.7,3.7,0,0,1,.6-2.1,5.73,5.73,0,0,1,1.5-1.6,6.26,6.26,0,0,1,2-1,7.61,7.61,0,0,1,2.1-.3h46.5v39.2Zm-13.4,0v-29H880.5v29Z" transform="translate(-3)"/><path d="M935.7,416.7a5.74,5.74,0,0,1,2.1-4.6,8.8,8.8,0,0,1,5.5-1.7H1008v49H994.7v-39H978.6v39H965.2v-39h-16v39H935.8V416.7Z" transform="translate(-3)"/><path d="M1069.5,435a5.92,5.92,0,0,1-1.5,4.3,6,6,0,0,1-4.4,1.5h-33.3v8.7h39.2v9.9H1023a6.25,6.25,0,0,1-4.7-1.8,4.51,4.51,0,0,1-1-1.4,4.71,4.71,0,0,1-.4-1.7V416.1a4.28,4.28,0,0,1,.6-2.2,6.55,6.55,0,0,1,1.5-1.8,9.86,9.86,0,0,1,2-1.3,5.37,5.37,0,0,1,2.1-.5h46.5V435Zm-39.2-4.2h25.8V420.6h-25.8Z" transform="translate(-3)"/><path d="M1089.7,459.5h-12.6V445.7h12.6Z" transform="translate(-3)"/><path d="M1097.4,459.5V388.7h13.3v21.8h39.2v49h-13.3v-39h-25.9v39Z" transform="translate(-3)"/><path d="M1157.5,428.6V418.5h64.6v10.1Z" transform="translate(-3)"/><path d="M1279.7,459.5h-41.2a5.79,5.79,0,0,1-4.1-1.3,5.07,5.07,0,0,1-2-3.6V415.4a3.29,3.29,0,0,1,.4-1.7,4.51,4.51,0,0,1,1-1.4,6.48,6.48,0,0,1,4.7-1.9h41.2v10.1h-33.9v29h33.9Z" transform="translate(-3)"/><path d="M1344.1,449.5h6.7v9.9h-54a8.92,8.92,0,0,1-2.2-.3,7.22,7.22,0,0,1-2-.9,5,5,0,0,1-1.4-1.5,3.7,3.7,0,0,1-.6-2.1V410.5H1304v39h26.6v-39H1344v39Z" transform="translate(-3)"/><path d="M1357.8,459.5V388.7h13.4v21.8h39.2v44.2a3.7,3.7,0,0,1-.6,2.1,6.73,6.73,0,0,1-1.4,1.5,6.1,6.1,0,0,1-2,.9,8.33,8.33,0,0,1-2.2.3Zm13.4-39v29H1397v-29Z" transform="translate(-3)"/><path d="M1471.4,435a5.92,5.92,0,0,1-1.5,4.3,6,6,0,0,1-4.4,1.5h-33.3v8.7h39.2v9.9h-46.5a6.25,6.25,0,0,1-4.7-1.8,4.51,4.51,0,0,1-1-1.4,4.71,4.71,0,0,1-.4-1.7V416.1a4.28,4.28,0,0,1,.6-2.2,6.55,6.55,0,0,1,1.5-1.8,9.86,9.86,0,0,1,2-1.3,5.37,5.37,0,0,1,2.1-.5h46.5V435Zm-39.2-4.2H1458V420.6h-25.8Z" transform="translate(-3)"/><path d="M1491.6,459.5H1479V445.7h12.6Z" transform="translate(-3)"/><path d="M1551.8,481.5a4.48,4.48,0,0,1-1.4,3.2,6.41,6.41,0,0,1-4.7,1.8h-46.5v-9.9h39.2v-17h-39.2V416.3a4.28,4.28,0,0,1,.6-2.2,6.55,6.55,0,0,1,1.5-1.8,9.86,9.86,0,0,1,2-1.3,5.37,5.37,0,0,1,2.1-.5h46.5v71Zm-13.4-60.9h-25.8v28.9h25.8Z" transform="translate(-3)"/><path d="M1614.2,449.5h7.5v9.9h-60.1V415.3a3.7,3.7,0,0,1,.6-2.1,5.73,5.73,0,0,1,1.5-1.6,6.26,6.26,0,0,1,2-1,7.61,7.61,0,0,1,2.1-.3h46.5v39.2Zm-13.4,0v-29H1575v29Z" transform="translate(-3)"/><path d="M1877.19,256.49a52.14,52.14,0,0,1,3.18-10.7c2.86-6.81,7.34-12.71,13.24-16.32l-5.33-11.83q-8.19,3.59-16.43,7.13l-8.26,3.51-4.14,1.76-4.16,1.73-4.16,1.75-4.16,1.73-4.16,1.74q-2.09.85-4.16,1.74c-5.56,2.32-11.14,4.64-16.71,7.08,6.05-.64,12-1.56,18-2.63,3-.52,6-1.14,8.94-1.71s5.93-1.27,8.89-1.93l4.43-1.06,4.42-1.09L1868,237c-.14.25-.28.5-.42.76l-.84,1.65c-.29.55-.54,1.11-.79,1.67s-.52,1.14-.76,1.69c-.45,1.14-.93,2.27-1.31,3.44a61.86,61.86,0,0,0-2,7.05,86.08,86.08,0,0,0-1.89,14.07c-.52,9.3.18,18.22.76,26.78l1.87,25.7c1.25,17.15,2.57,34.34,4.16,51.55l.62,6.46.67,6.46.33,3.23.38,3.23c.25,2.15.46,4.31.73,6.46l.78,6.46c.22,1.65.43,3.31.65,5a46.61,46.61,0,0,0-7.62.79,47.79,47.79,0,0,0-12.81,4.35,39.61,39.61,0,0,0-11.2,8.38l0,.07h-.17l2.16,5.23a63,63,0,0,0,13.32,0,77.7,77.7,0,0,0,12.25-2.25,71,71,0,0,0,11.86-4.27c1-.45,2-.94,3-1.48s2-1.07,3-1.69c.5-.3,1-.61,1.49-.94l.76-.49.76-.53a28.48,28.48,0,0,0,3-2.38,24.94,24.94,0,0,0-3.43-1.81l-.86-.38-.86-.32c-.58-.22-1.14-.42-1.73-.6-1.14-.35-2.3-.64-3.45-.89s-2.3-.42-3.45-.56c-.71-.08-1.42-.14-2.13-.19.17-1.71.33-3.41.49-5.13l.55-6.49c.19-2.16.32-4.33.49-6.49l.23-3.25.2-3.25.38-6.49c.11-2.16.23-4.33.31-6.5q1.16-26,.57-52c-.21-8.68-.54-17.35-1.06-26s-1.14-17-.87-25A79.16,79.16,0,0,1,1877.19,256.49Z" transform="translate(-3)" style="fill:#ff6d00"/><path d="M1940.71,245.59a36.21,36.21,0,0,0-1-3.84,17.72,17.72,0,0,0-2-4.2,10.45,10.45,0,0,0-3.75-3.46v0l-.36-.26a6.22,6.22,0,0,0-.76-.36,4.37,4.37,0,0,0-1.81-.22l-1.58.08.17,5a6.37,6.37,0,0,1-.36,2.16c-.21.69-.45,1.43-.72,2.27s-.54,1.75-.81,2.77-.5,2.2-.7,3.3a62.66,62.66,0,0,0-.91,13.24,57.74,57.74,0,0,0,2,13.24,49.28,49.28,0,0,0,2.32,6.63c.48,1.1,1,2.21,1.62,3.31a27.51,27.51,0,0,0,2.08,3.31,27.51,27.51,0,0,0,2.1-3.3c.62-1.1,1.14-2.2,1.64-3.3a49.27,49.27,0,0,0,2.36-6.61,57.74,57.74,0,0,0,2.06-13.24,62.66,62.66,0,0,0-.82-13.24C1941.19,247.81,1941,246.73,1940.71,245.59Zm-8.53-6.52a.67.67,0,0,1-.23-.17.52.52,0,0,1-.13-.2.44.44,0,0,1,0-.2c.05-.25.31-.34.62-.33l.23,0,.08,0-.26,1A.68.68,0,0,1,1932.18,239.07Z" transform="translate(-3)" style="fill:#ff6d00"/><path d="M2062,368.91a21.72,21.72,0,0,1-5.06-6.65,28.19,28.19,0,0,1-1.62-3.84,31.12,31.12,0,0,1-1-4,57.65,57.65,0,0,1-.9-8.43c-.12-2.84,0-5.71.11-8.61s.38-5.83.64-8.8.47-6,.64-9.08l.11-2.32c0-.78.06-1.56.06-2.35,0-1.57,0-3.16-.06-4.77a65.26,65.26,0,0,0-1.08-9.84,46.68,46.68,0,0,0-3.11-9.87l-.27-.6c-.09-.21-.17-.38-.29-.62a13.94,13.94,0,0,0-1-1.74,10.28,10.28,0,0,0-2.12-2.27,9.3,9.3,0,0,0-1.71-1.06,10.17,10.17,0,0,0-1-.38l-.49-.16-.52-.13a9.54,9.54,0,0,0-1.05-.18c-.35,0-.7-.05-1.06-.05a9.56,9.56,0,0,0-1,.06,3,3,0,0,0-.49.06l-.45.09c-.29.06-.62.14-.87.22l-.78.28c-.26.1-.46.2-.69.31l-.33.16-.3.16a14.49,14.49,0,0,0-3.41,2.7c-.42.44-.81.89-1.15,1.32l-.76,1-1.4,1.77c-.93,1.2-1.85,2.38-2.78,3.61s-1.85,2.46-2.78,3.71l-1.37,1.93c-.46.64-.9,1.32-1.35,2-1.4,2.09-2.73,4.29-4,6.57l-1.43-2.89c-1.14-2.27-2.22-4.42-3.24-6.63-.51-1.1-1-2.2-1.51-3.32l-.84-1.87c-.33-.73-.72-1.48-1.14-2.25a21.6,21.6,0,0,0-3.66-4.89l-.32-.31-.35-.31c-.24-.21-.47-.41-.72-.61a15.4,15.4,0,0,0-1.68-1.14,14.33,14.33,0,0,0-1.94-1,14.16,14.16,0,0,0-6.61-.92,16.54,16.54,0,0,0-2.21.41,18.72,18.72,0,0,0-2,.72,16.14,16.14,0,0,0-3.28,2,15.72,15.72,0,0,0-1.29,1.1l-.58.56c-.2.19-.35.38-.53.56a25.06,25.06,0,0,0-3.22,4.51c-.21.38-.42.76-.61,1.14s-.38.76-.55,1.14-.35.76-.5,1.14l-.24.56c-.08.19-.12.33-.19.49q-1.54,3.89-2.81,7.86a43,43,0,0,0-1.73-4.16,25.35,25.35,0,0,0-5-7.14l-.88-.84.09,1.11c.1,1.18.23,2.36.34,3.54q.17-1.14.35-2.27a26.57,26.57,0,0,1,2.56,6.54,53,53,0,0,1,1.28,8c.12,1.37.21,2.76.29,4.16,0,.23,0,.47,0,.7a127.3,127.3,0,0,0-2.44,13.68,124.5,124.5,0,0,0,.19,32l11.45.13c.17-2.9.28-5.81.28-8.7,0-1.72,0-3.44,0-5.15a132.59,132.59,0,0,1,2.06-16.15,129,129,0,0,1,8.45-27.44c.06-.13.12-.29.17-.38l.14-.31c.09-.21.2-.41.3-.61s.21-.38.31-.58.22-.38.32-.55a8.79,8.79,0,0,1,.59-.87l0,.05c.18.35.38.73.56,1.17l.7,1.63c.52,1.22,1.07,2.44,1.63,3.65,1.12,2.42,2.29,4.83,3.45,7.11s2.23,4.37,3.14,6.47,1.77,4.24,2.55,6.48,1.51,4.54,2.24,6.89l7.62,24.57,7.67-24.37c.44-1.38.85-2.79,1.3-4.16l.66-2.05.68-2c.92-2.65,1.89-5.22,3-7.66a70.06,70.06,0,0,1,3.73-7.14c1.41-2.36,3-4.75,4.61-7.19l2.08-3a48.89,48.89,0,0,1,2.65,10.78c1.58,11,.69,23.35,3.08,35.76a56,56,0,0,0,2.54,9.15,31.71,31.71,0,0,0,4.72,8.47,26,26,0,0,0,3.29,3.51,20,20,0,0,0,3.92,2.75,15.22,15.22,0,0,0,4.46,1.59,12.83,12.83,0,0,0,4.59,0,13.31,13.31,0,0,1-4.26-1.09A14.73,14.73,0,0,1,2062,368.91ZM1996,298.73h0C1996.11,298.67,1996.13,298.68,1996,298.73Zm42.27-3.33.06.11a1.55,1.55,0,0,1-.21-.28c0-.07,0,0,.14.17Z" transform="translate(-3)" style="fill:#ff6d00"/><path d="M2232.68,272.65c-1.65.12-3.25.33-4.83.58a74.47,74.47,0,0,0-9.17,2.1,92.26,92.26,0,0,0-16.9,6.94,93.34,93.34,0,0,0-15.28,10q-2.65,2.15-5.17,4.59c.52-11.18.68-22.38.43-33.58q-.17-6.08-.45-12.15t-.81-12.15q-.53-6.05-1.21-12.14l-.78-6.05q-.12-.81-.23-1.62l1-.28c12.95-3.81,25.53-8.42,37.92-13.23s24.57-9.84,36.78-14.84,24.45-9.91,37.06-14.91h.07l-.45-2.19c-13.71-.38-27.38,1.56-40.63,4.62a290.78,290.78,0,0,0-38.68,12.16c-12.53,4.81-24.76,10.16-36.81,15.78-3,1.37-6,2.8-9,4.25s-6,2.85-9,4.34-6,2.9-9,4.43l-4.51,2.22c-1.51.76-3,1.51-4.51,2.33l.72,3.27.21-.08v0c1.7-.17,3.38-.38,5.08-.59s3.38-.45,5.07-.69q5-.86,10-1.86t9.9-2.32l3.92-1.06,0,.21-.9,6q-.9,6-1.63,12t-1.43,12q-.7,6-1.28,12c-1.6,16-2.86,31.94-3.91,47.93s-1.86,32-2.3,48.06q-.18,6-.25,12.08t-.06,12.11c0,2,0,4,0,6.07s.06,4.06.14,6.09c.1,4.06.25,8.14.58,12.25,1.39-3.87,2.6-7.78,3.75-11.7.57-2,1.1-3.92,1.62-5.89s1-3.94,1.53-5.91Q2170.75,378,2172,372t2.33-11.94a474.42,474.42,0,0,0,6.05-48.2q.22-2.9.4-5.8,1.24-.15,2.45-.35a75.18,75.18,0,0,0,9.17-2.11,93.34,93.34,0,0,0,16.92-6.92,92.26,92.26,0,0,0,15.29-10,74.47,74.47,0,0,0,6.92-6.36c1.1-1.16,2.18-2.36,3.22-3.65a36.75,36.75,0,0,0,3-4.12A36.74,36.74,0,0,0,2232.68,272.65Z" transform="translate(-3)" style="fill:#ff6d00"/><path d="M2314.27,363.15c-.22-.33-.4-.69-.6-1l-.58-1.05c-.34-.73-.7-1.44-1-2.18s-.64-1.46-.89-2.22l-.41-1.14c-.13-.38-.24-.76-.38-1.14-2-6.08-2.83-12.49-3.67-19q-.44-3.66-.76-7.31a118.79,118.79,0,0,0-.61-32.28l-13.49.73q.09,2.53.25,5.05a124.23,124.23,0,0,1-5.59,41.43c-1.12,3.67-2.48,7.25-3.93,10.8-.78,1.75-1.51,3.52-2.36,5.23-.42.86-.81,1.73-1.26,2.58l-1.34,2.54c-.45.88-.86,1.62-1.29,2.33-.21.38-.44.7-.65,1s-.44.66-.67,1-.45.62-.67.89l-.33.42-.33.38-.17.19-.17.17-.33.34-.32.29-.16.15-.15.12-.3.24c-.1.08-.19.12-.27.18l-.13.1-.12.06-.23.14-.2.09s-.07,0-.1.05l-.09,0c-.06,0-.12.05-.17.07l-.16,0a.33.33,0,0,1-.16,0,1.24,1.24,0,0,0-.16,0H2270a3.5,3.5,0,0,1-.93-.24,8.53,8.53,0,0,1-2.65-1.86c-.45-.41-.91-1-1.39-1.57-.23-.28-.42-.6-.64-.89l-.32-.45c-.11-.15-.19-.32-.29-.48l-.58-1-.51-1-.26-.52-.22-.56-.45-1.14c-.24-.79-.54-1.55-.76-2.39-.11-.41-.23-.82-.33-1.24l-.28-1.29a70.92,70.92,0,0,1-1.19-11.12c-.06-2-.11-3.94-.12-6l-.05-6.16c-.19-16.46-.69-32.92-1.8-49.45l-.48-7.19-2.41,6.41a26.15,26.15,0,0,0-.92,2.92,28.54,28.54,0,0,0-.58,3,26.31,26.31,0,0,0-.24,3v1.54c-2,13.07-3.64,26.15-5.09,39.25-.23,2.05-.45,4.08-.65,6.15s-.38,4.21-.53,6.35-.22,4.35-.17,6.6c0,1.11.06,2.27.11,3.41,0,.57.09,1.14.14,1.73s.09,1.14.18,1.74l.23,1.75c.09.59.21,1.18.32,1.77l.17.89c.06.3.14.59.21.89l.45,1.79c.18.6.38,1.19.57,1.79l.29.89.36.89c.24.59.48,1.19.73,1.78l.87,1.74c.15.29.29.58.46.87l.51.84c.35.56.68,1.14,1.06,1.68l1.19,1.6a19.39,19.39,0,0,0,1.32,1.6,24,24,0,0,0,7.15,5.48,18.72,18.72,0,0,0,4.92,1.63,18.25,18.25,0,0,0,2.75.28c.46,0,.92,0,1.38,0a10.78,10.78,0,0,0,1.37-.12l1.36-.23c.44-.09.87-.22,1.31-.34l.65-.19.62-.23,1.22-.49a8.52,8.52,0,0,0,1.14-.57l.56-.3.52-.32,1-.65.93-.64.46-.35.42-.36.84-.73.76-.76.38-.38.36-.38.7-.76c.23-.25.44-.51.65-.76.44-.51.82-1,1.22-1.54s.76-1,1.1-1.55.69-1,1-1.55c.65-1,1.24-2.09,1.75-3l1.56-2.9c.51-1,1-2,1.46-3,1-2,1.84-4,2.71-6,.22-.5.42-1,.62-1.51l.59-1.54c.38-1,.81-2,1.14-3.08l1-3.12.26-.78.26-.8.38-1.34.57,1.42c.35.8.68,1.6,1.05,2.39s.72,1.58,1.14,2.36l.6,1.17c.2.38.43.76.64,1.14a39.23,39.23,0,0,0,6.26,8.41,25.79,25.79,0,0,0,8.49,5.75A28.83,28.83,0,0,1,2314.27,363.15Z" transform="translate(-3)" style="fill:#ff6d00"/><path d="M2370.44,372.69a4.59,4.59,0,0,1-2.12.93,6.37,6.37,0,0,1-4.28-.76,5,5,0,0,1-.76-.59,3.5,3.5,0,0,1-.54-.68,7.43,7.43,0,0,1-.87-1.85,10.49,10.49,0,0,1-.42-2.07,15.26,15.26,0,0,1-.08-2.25,47.09,47.09,0,0,1,.46-4.89c.24-1.75.48-3.53.69-5.3q.67-5.3,1.24-10.63,1.14-10.63,2-21.27.42-5.32.78-10.64c.12-1.77.23-3.55.34-5.32l.16-2.65c0-.89.11-2,.08-3.18a19.1,19.1,0,0,0-.13-2,18.46,18.46,0,0,0-.4-2.27,15.11,15.11,0,0,0-.83-2.48l-.14-.31-.16-.33q-.19-.38-.38-.72a13.8,13.8,0,0,0-.87-1.32,13.31,13.31,0,0,0-2.13-2.27,12.94,12.94,0,0,0-2.74-1.79,12.29,12.29,0,0,0-3.55-1.11,11.57,11.57,0,0,0-4.26.17,11.73,11.73,0,0,0-3.75,1.61,14.4,14.4,0,0,0-2.34,1.91c-.58.58-1,1.09-1.35,1.48l-.92,1.14-1.82,2.27c-.61.76-1.14,1.55-1.72,2.32l-.85,1.17c-.28.38-.57.78-.83,1.18l-1.58,2.42-.78,1.21-.73,1.24-1.45,2.5c-.47.84-.9,1.7-1.35,2.55l-.66,1.28c-.22.43-.45.85-.64,1.29l-1.2,2.63c-.2.44-.4.87-.59,1.32l-.54,1.34-1.06,2.68c-.3.81-.58,1.64-.86,2.46l-.91-2.56c-.45-1.21-.91-2.43-1.39-3.63a121.41,121.41,0,0,0-6.57-14c.7,5.12,1.4,10.17,2,15.21.12,1.26.27,2.52.42,3.78l.38,3.78.35,3.75.29,3.75q.45,6.21.65,12.39a93.85,93.85,0,0,0,0,17.48l13.14-.51v-.08h0a103.19,103.19,0,0,1,2.33-19.56c.08-.4.17-.8.27-1.2l.3-1.19c.2-.79.38-1.59.59-2.38l.69-2.35.34-1.18c.11-.38.26-.76.38-1.17.53-1.55,1-3.1,1.63-4.62.3-.76.57-1.51.88-2.27s.65-1.51,1-2.25l.48-1.14c.17-.38.35-.73.52-1.1l1.06-2.2c.17-.38.36-.73.55-1.09l.57-1.08c.38-.72.76-1.45,1.14-2.15,1.37-2.37,2.77-4.72,4.31-7,0,1.29,0,2.58.06,3.87q.09,5.33.26,10.66.33,10.66,1,21.33.32,5.34.72,10.68c.13,1.79.28,3.55.44,5.35.08.92.17,1.86.29,2.82a27.79,27.79,0,0,0,.5,2.93,20.81,20.81,0,0,0,.88,3,13.89,13.89,0,0,0,1.46,2.9,12,12,0,0,0,2.19,2.49,7.6,7.6,0,0,0,1.51,1,8,8,0,0,0,1.62.6,8.7,8.7,0,0,0,6.16-.76,5.68,5.68,0,0,0,2.22-2.05,3.89,3.89,0,0,0,.48-2.77A3.62,3.62,0,0,1,2370.44,372.69Zm-18.88-71.47v0h0s0,0,0,0a1.67,1.67,0,0,1,.08.23l0-.08A.76.76,0,0,1,2351.57,301.22Z" transform="translate(-3)" style="fill:#ff6d00"/><path d="M2430.71,229.59c-.27-1.71-.58-3.41-1-5.11s-.81-3.41-1.29-5.1-1.06-3.41-1.71-5.08a42.39,42.39,0,0,0-2.27-5,44,44,0,0,0-2.23,5.05c-.66,1.68-1.23,3.35-1.74,5s-1,3.33-1.41,5-.81,3.32-1.14,5a137,137,0,0,0-2.54,19.87,135,135,0,0,0,.3,20q.22,2.53.59,5.07c.23,1.7.51,3.41.85,5.12s.71,3.44,1.18,5.18a43.56,43.56,0,0,0,1.67,5.27,42,42,0,0,0,2.84-4.76c.84-1.6,1.58-3.23,2.27-4.86s1.29-3.27,1.85-4.92,1.06-3.31,1.51-5a101.48,101.48,0,0,0,2.24-40.72Z" transform="translate(-3)" style="fill:#ff6d00"/><path d="M2423.91,320a13.84,13.84,0,0,0-4-2.94l-.33.19-.3.19-.59.38c-.38.24-.71.47-1,.69-.66.45-1.21.89-1.74,1.3s-1,.82-1.41,1.22a15,15,0,0,0-1.14,1.16,9,9,0,0,0-2,9.65,14.69,14.69,0,0,0,.59,1.54c.22.53.52,1.1.82,1.69.17.3.32.6.51.91s.38.63.6,1l.68,1,.41.56.2.28.24.3.38,0,.34,0,.69-.09c.43-.08.86-.16,1.24-.27a15.51,15.51,0,0,0,2.16-.76,12.42,12.42,0,0,0,3.3-2.12,10.6,10.6,0,0,0,3.34-5.8,10.77,10.77,0,0,0-.78-6.7A12.23,12.23,0,0,0,2423.91,320Z" transform="translate(-3)" style="fill:#ff6d00"/></svg>